<svg height="511pt" viewBox="0 0 511.99003 511" width="511pt" xmlns="http://www.w3.org/2000/svg"><path d="m416.605469 503.855469h-175.53125c-7.628907-.007813-14.855469-3.417969-19.710938-9.300781-9.644531-11.859376-27.136719-31.488282-40.707031-36.691407l-58.453125-22.527343c-14.128906-5.402344-26.558594-14.472657-36.007813-26.285157l-35.160156-43.945312c-12.109375-15.136719-18.699218-33.949219-18.6875-53.332031v-36.953126c0-14.136718 11.460938-25.597656 25.601563-25.597656 14.136719 0 25.597656 11.460938 25.597656 25.597656v25.347657c.015625 10.078125 4.480469 19.632812 12.203125 26.109375l46.847656 20.054687c1.058594.429688 2.1875.660157 3.328125.683594 3.929688.019531 7.359375-2.664063 8.277344-6.488281 3.921875-15.550782 1.105469-32.03125-7.765625-45.394532l-132.949219-200.789062c-9.09375-13.761719-5.3125-32.292969 8.449219-41.386719 13.761719-9.097656 32.292969-5.316406 41.386719 8.445313l46.507812 67.839844c-6.6875-14.203126-1.234375-31.160157 12.480469-38.804688s31.007812-3.367188 39.570312 9.792969l26.710938 40.449219.257812-.171876c-9.097656-13.761718-5.316406-32.292968 8.445313-41.386718 13.761719-9.097656 32.292969-5.3125 41.386719 8.449218l24.664062 37.289063c-6.414062-14.191406-.84375-30.925781 12.792969-38.449219 13.632813-7.519531 30.761719-3.300781 39.34375 9.691406l40.960937 61.953126c12.449219 18.839843 20.011719 40.480468 22.015626 62.976562l8.277343 91.136719.085938.082031 2.816406 31.746094c.761719 7.890625 2.394531 15.675781 4.863281 23.210937l37.886719 93.183594c2.125 5.253906 1.503906 11.222656-1.660156 15.925781-3.164063 4.703125-8.457031 7.527344-14.125 7.539063zm0 0" fill="#e3e7f2"/><path d="m129.953125 340.957031c-1.046875 3.601563-4.355469 6.074219-8.105469 6.058594-1.144531-.023437-2.273437-.253906-3.328125-.683594l-46.847656-20.054687c-7.726563-6.476563-12.191406-16.03125-12.203125-26.109375v-25.347657c-.019531-9.457031-5.230469-18.144531-13.570312-22.613281 7.941406-4.183593 17.492187-3.914062 25.1875.710938 7.691406 4.621093 12.410156 12.929687 12.445312 21.902343v25.347657c.011719 10.078125 4.480469 19.632812 12.203125 26.109375zm0 0" fill="#a4c2f7"/><path d="m416.585938 503.855469h-24.0625c5.667968-.011719 10.960937-2.835938 14.125-7.539063 3.164062-4.703125 3.789062-10.671875 1.660156-15.925781l-37.886719-93.183594c-2.46875-7.535156-4.097656-15.320312-4.863281-23.210937l-2.816406-31.746094-.085938-.082031-8.277344-91.136719c-2-22.496094-9.566406-44.136719-22.015625-62.976562l-40.960937-61.953126c-3.144532-4.828124-7.660156-8.601562-12.96875-10.835937 3.785156-1.6875 7.886718-2.558594 12.03125-2.5625 10.054687-.015625 19.449218 5.015625 25.003906 13.398437l40.957031 61.953126c12.449219 18.839843 20.015625 40.480468 22.015625 62.976562l8.277344 91.136719.085938.082031 2.816406 31.746094c.765625 7.890625 2.398437 15.675781 4.863281 23.210937l37.890625 93.183594c2.125 5.253906 1.503906 11.222656-1.660156 15.925781-3.164063 4.703125-8.457032 7.527344-14.128906 7.539063zm0 0" fill="#a4c2f7"/><path d="m147.804688 435.335938c-14.128907-5.402344-26.5625-14.472657-36.011719-26.285157l-35.15625-43.945312c-12.109375-15.136719-18.703125-33.949219-18.6875-53.332031v-36.953126c.011719-9.128906 4.957031-17.539062 12.925781-21.988281-1.523438-.917969-3.136719-1.667969-4.820312-2.246093h-.171876c-1.835937-.59375-3.734374-.984376-5.65625-1.160157-.605468-.050781-1.1875 0-1.785156 0-1.304687-.046875-2.609375.011719-3.90625.171875-.664062.085938-1.304687.238282-1.953125.375-1.226562.257813-2.433593.601563-3.609375 1.03125-.523437.207032-1.035156.402344-1.546875.632813s-1.039062.367187-1.527343.625l.195312.117187c-8.414062 4.324219-13.714844 12.980469-13.746094 22.441406v36.953126c-.011718 19.382812 6.578125 38.195312 18.6875 53.332031l35.160156 43.945312c9.449219 11.8125 21.878907 20.882813 36.007813 26.285157l58.453125 22.527343" fill="#fff"/><path d="m146.4375 295.132812c8.832031 13.3125 11.660156 29.722657 7.800781 45.226563l13.960938 5.972656c1.058593.429688 2.1875.660157 3.328125.683594 3.929687.019531 7.359375-2.664063 8.277344-6.488281 3.921874-15.550782 1.101562-32.03125-7.765626-45.394532l-132.949218-200.789062c-4.367188-6.609375-5.933594-14.683594-4.347656-22.445312 1.582031-7.761719 6.1875-14.574219 12.796874-18.941407 1.128907-.742187 2.308594-1.402343 3.53125-1.980469-3.980468-1.914062-8.332031-2.929687-12.75-2.96875-10.976562.027344-21.054687 6.082032-26.238281 15.757813-5.1875 9.675781-4.644531 21.417969 1.40625 30.578125zm0 0" fill="#fff"/><path d="m20.480469 93.019531 63.613281 90.886719 74.460938 106.378906-13.984376 9.789063-74.460937-106.386719-63.617187-90.878906zm0 0" fill="#fff"/><g fill="#428dff"><path d="m51.191406 162.277344c1.105469.167968 2.234375.121094 3.328125-.136719 1.089844-.234375 2.128907-.679687 3.054688-1.308594 2.851562-1.972656 4.226562-5.472656 3.476562-8.859375-.75-3.386718-3.472656-5.980468-6.890625-6.566406l-1.640625-.101562c-.574219 0-1.148437.085937-1.703125.246093-.539062.074219-1.0625.230469-1.554687.460938-.519531.25-1.015625.535156-1.492188.851562-2.898437 1.925781-4.261719 5.464844-3.40625 8.832031.777344 3.351563 3.453125 5.929688 6.828125 6.582032zm0 0"/><path d="m6.527344 102.789062 19.574218 27.964844c2.699219 3.863282 8.019532 4.808594 11.882813 2.113282 3.863281-2.699219 4.808594-8.019532 2.113281-11.882813l-19.492187-27.785156c-6.472657-9.824219-3.773438-23.03125 6.035156-29.527344 10.054687-6.347656 23.347656-3.460937 29.867187 6.488281l51.078126 67.078125.050781.09375.105469.199219c.714843 1.355469 1.464843 2.703125 2.292968 3.957031.246094.277344.511719.542969.792969.785157l69.675781 105.320312c2.679688 3.695312 7.796875 4.628906 11.609375 2.113281 3.8125-2.511719 4.96875-7.582031 2.625-11.5l-72.046875-108.964843-.050781-.09375c-4.351563-9.5625-1.09375-20.867188 7.679687-26.648438 9.886719-6.199219 22.898438-3.542969 29.566407 6.03125l26.710937 40.441406c.390625.585938.847656 1.121094 1.363282 1.59375l39.628906 62.757813c2.519531 3.984375 7.789062 5.171875 11.773437 2.65625s5.175781-7.785157 2.65625-11.773438l-40.957031-64.851562c-3.140625-4.691407-4.257812-10.449219-3.097656-15.972657 1.121094-5.554687 4.410156-10.433593 9.136718-13.5625 9.886719-6.203124 22.902344-3.546874 29.570313 6.035157l24.207031 36.589843c.113282.214844.238282.425782.367188.640626l.070312.101562c.679688 1.339844 1.378906 2.628906 2.199219 3.941406.261719.335938.546875.648438.855469.941406l20.777344 32.851563c1.59375 2.65625 4.503906 4.242187 7.597656 4.140625 3.097656-.101562 5.894531-1.875 7.3125-4.632812 1.414062-2.753907 1.222656-6.0625-.496094-8.636719l-23.433594-37.054688c-4.109375-9.511719-.851562-20.601562 7.746094-26.382812 9.886719-6.203125 22.898438-3.546875 29.5625 6.03125l40.957031 61.902343c11.667969 17.683594 18.78125 37.972657 20.710938 59.066407l8.253906 87.648437c.027344.347656.082031.695313.160156 1.039063l2.773438 30.71875c.789062 8.734375 2.613281 17.339843 5.429687 25.644531l37.878906 93.167969c1.070313 2.628906.761719 5.617187-.820312 7.972656-1.582031 2.359375-4.234375 3.773437-7.074219 3.777344h-175.488281c-5.082031.035156-9.910156-2.230469-13.132812-6.160157-12.03125-14.796874-29.492188-33.621093-44.246094-39.253906l-58.496094-22.539062c-12.691406-4.863282-23.863281-13.019532-32.367188-23.628906l-35.15625-43.9375c-10.878906-13.625-16.800781-30.546876-16.800781-47.980469v-36.949219c.019531-5.480469 2.667969-10.621094 7.125-13.8125 4.453125-3.191406 10.171875-4.050781 15.367188-2.308594 4.496093 1.46875 10.242187 12.253906 11.625 17.023438v24.429687c-.019531 12.636719 5.589843 24.621094 15.296875 32.703125.640625.535156 1.351562.96875 2.117187 1.296875l46.824219 20c4.59375 1.964844 9.820312 1.816407 14.296875-.410156 4.476563-2.222656 7.75-6.296875 8.964844-11.144531 4.457031-17.878906 1.222656-36.808594-8.925781-52.1875-.042969-.0625-.121094-.09375-.164063-.15625l-79.359375-113.371094c-1.722656-2.5625-4.695312-3.992188-7.769531-3.742188-3.078125.25-5.777344 2.144532-7.066407 4.949219-1.285156 2.804688-.957031 6.085938.859376 8.578125l79.25 113.1875c7.515624 11.371094 9.914062 25.378906 6.613281 38.605469l-45.585938-19.472656c-5.289062-4.835938-8.296875-11.671875-8.285156-18.835938v-25.332031c0-4.019531-8.140625-27.308594-23.324219-32.324219-10.398437-3.476562-21.835937-1.738281-30.738281 4.664063-8.90625 6.402344-14.1875 16.691406-14.207031 27.660156v36.9375c.007812 21.3125 7.253906 41.988281 20.550781 58.644531l35.15625 43.9375c10.402344 12.96875 24.066406 22.941407 39.59375 28.882813l58.480469 22.53125c8.652344 3.308594 22.1875 15.734375 37.128906 34.132812 6.457031 7.921875 16.152344 12.5 26.375 12.449219h175.488281c8.519531 0 16.480469-4.234375 21.242188-11.304687 4.757812-7.066407 5.6875-16.035157 2.480469-23.929688l-37.699219-92.65625c-2.292969-6.894531-3.777344-14.027344-4.429688-21.265625l-2.859375-31.707031c-.03125-.371094-.09375-.742188-.1875-1.101563l-8.148437-86.640625c-2.179688-23.898437-10.242188-46.882812-23.46875-66.910156l-40.957031-61.925781c-7.140626-10.746094-19.191407-17.203125-32.09375-17.195313-7.519532 0-14.871094 2.222656-21.128907 6.394532-6.175781 4.136718-11.023437 9.972656-13.960937 16.800781l-9.617188-14.507813c-7.847656-11.875-21.625-18.425781-35.789062-17.019531-14.160156 1.402344-26.382813 10.535156-31.742188 23.71875l-9.277344-14.0625c-11.699218-17.664063-35.492187-22.515625-53.171874-10.847656-6.835938 4.5625-12.019532 11.210937-14.769532 18.953125l-35.730468-46.933594c-11.699219-17.671875-35.507813-22.519531-53.1875-10.835938-8.496094 5.621094-14.410157 14.386719-16.441407 24.367188-2.027343 9.984375-.011719 20.363281 5.613281 28.855469.042969.058593.101563.09375.144532.152343zm0 0"/><path d="m336.136719 478.257812c4.710937 0 8.53125-3.820312 8.53125-8.535156 0-4.710937-3.820313-8.53125-8.53125-8.53125h-68.269531c-4.710938 0-8.53125 3.820313-8.53125 8.53125 0 4.714844 3.820312 8.535156 8.53125 8.535156zm0 0"/><path d="m387.335938 478.257812c4.710937 0 8.53125-3.820312 8.53125-8.535156 0-4.710937-3.820313-8.53125-8.53125-8.53125h-17.066407c-4.714843 0-8.535156 3.820313-8.535156 8.53125 0 4.714844 3.820313 8.535156 8.535156 8.535156zm0 0"/><path d="m494.921875 25.988281c-4.710937 0-8.53125 3.824219-8.53125 8.535157 0 4.710937 3.820313 8.535156 8.53125 8.535156h8.535156c4.710938 0 8.53125-3.824219 8.53125-8.535156 0-4.710938-3.820312-8.535157-8.53125-8.535157zm0 0"/><path d="m469.324219 34.523438c0-4.710938-3.820313-8.535157-8.535157-8.535157h-73.265624l11.03125-11.03125c3.234374-3.347656 3.1875-8.671875-.101563-11.960937-3.292969-3.292969-8.613281-3.339844-11.960937-.105469l-25.601563 25.601563c-1.605469 1.597656-2.507813 3.773437-2.507813 6.039062 0 2.269531.902344 4.441406 2.507813 6.042969l25.601563 25.597656c3.347656 3.234375 8.667968 3.1875 11.960937-.101563 3.289063-3.292968 3.335937-8.613281.101563-11.960937l-11.03125-11.050781h73.265624c4.714844 0 8.535157-3.824219 8.535157-8.535156zm0 0"/><path d="m290.125 25.988281c-4.714844 0-8.535156 3.824219-8.535156 8.535157 0 4.710937 3.820312 8.535156 8.535156 8.535156h8.53125c4.714844 0 8.535156-3.824219 8.535156-8.535156 0-4.710938-3.820312-8.535157-8.535156-8.535157zm0 0"/><path d="m264.523438 34.523438c0-4.710938-3.820313-8.535157-8.535157-8.535157h-73.265625l11.035156-11.03125c3.234376-3.347656 3.1875-8.671875-.105468-11.960937-3.292969-3.292969-8.613282-3.339844-11.960938-.105469l-25.601562 25.601563c-1.605469 1.597656-2.507813 3.773437-2.507813 6.039062 0 2.269531.902344 4.441406 2.507813 6.042969l25.601562 25.597656c3.347656 3.234375 8.667969 3.1875 11.960938-.101563 3.292968-3.292968 3.339844-8.613281.105468-11.960937l-11.035156-11.050781h73.265625c4.714844 0 8.535157-3.824219 8.535157-8.535156zm0 0"/></g></svg>