<svg id="Gradient" height="512" viewBox="0 0 512 512" width="512" xmlns="http://www.w3.org/2000/svg" xmlns:xlink="http://www.w3.org/1999/xlink"><linearGradient id="linear-gradient" gradientUnits="userSpaceOnUse" x1="256" x2="256" y1="496" y2="16"><stop offset="0" stop-color="#12c2e9"/><stop offset=".5" stop-color="#c471ed"/><stop offset="1" stop-color="#f64f59"/></linearGradient><path d="m368 272c-2.141 0-4.267.067-6.38.186-25.414-38.013-61.227-63.9-102.114-74.624a96 96 0 1 0 -86.978.017c-33.16 8.7-63.155 27.408-87.009 54.772-34.512 39.59-53.519 94.867-53.519 155.649a8 8 0 0 0 4.169 7.023c3.667 2 90.814 48.977 179.831 48.977a332.27 332.27 0 0 0 67.026-7.121 111.978 111.978 0 1 0 84.974-184.879zm-232-160a80 80 0 1 1 80 80 80.091 80.091 0 0 1 -80-80zm80 336c-74.188 0-149.593-35.583-167.957-44.844.971-54.992 18.474-104.658 49.536-140.291 30.843-35.38 72.899-54.865 118.421-54.865 50.71 0 96.7 24.14 127.817 66.637a111.946 111.946 0 0 0 -71.217 167.975 312.1 312.1 0 0 1 -56.6 5.388zm152 32a96 96 0 1 1 96-96 96.108 96.108 0 0 1 -96 96zm73.268-123.562-16 24a8 8 0 0 1 -11.094 2.218l-24-16a8 8 0 1 1 8.875-13.312l8.427 5.618a48 48 0 0 0 -88.249-3.529 8 8 0 0 1 -14.454-6.866 64 64 0 0 1 118.262 6.375l4.92-7.38a8 8 0 0 1 13.313 8.876zm-10.041 63a64 64 0 0 1 -118.262-6.375l-4.92 7.38a8 8 0 0 1 -13.313-8.876l16-24a8 8 0 0 1 11.094-2.218l24 16a8 8 0 1 1 -8.875 13.312l-8.427-5.618a48 48 0 0 0 88.249 3.529 8 8 0 0 1 14.454 6.866z" fill="url(#linear-gradient)"/></svg>